# xmcd
#
# Track frame offsets:
#	150
#	14507
#	27575
#	41955
#	54120
#	69272
#	87315
#	101202
#	114207
#	131052
#	144200
#	157707
#	172750
#	184692
#
# Disc length: 2668
#
# Revision: 1
# Processed by: cddbd v1.5.1PL0 Copyright (c) Steve Scherf et al.
# Submitted via: VisiTrax 2.9.3.171 - For more info visit www.synapsa.com
# Normalized: r0:DSETVAR1
#
DISCID=ad0a6a0e
DTITLE=Various Artist - Mr Music Country 10-01
DYEAR=1900
DGENRE=
TTITLE0=Wayne Kemp - Waiting For The Tables To Turn
TTITLE1=Myra Pearce - Drag Your Own Wagon
TTITLE2=Kelly Spinks - Thank God For Cowboys
TTITLE3=Kieran kane - I Wonder Where You Are Tonight
TTITLE4=Libbi Bosworth - South Texas Highway
TTITLE5=Bill Kirchen - Tied To The Wheel
TTITLE6=Karen Poston - Wherever You Are
TTITLE7=Shane Worley - Yesterday's Hero
TTITLE8=Alison Krauss and Union Station - Crazy Faith
TTITLE9=Sammy Kershaw - Memphis Tennessee
TTITLE10=Eva Eastwood and The Major Keys - King For a Day
TTITLE11=Rayburn Anthony - Too Close To That Old Flame
TTITLE12=Mike Henderson - Drivin' Nails In My Coffin
TTITLE13=Rhonda Vincent - When I Close My Eyes
EXTD=
EXTT0=
EXTT1=
EXTT2=
EXTT3=
EXTT4=
EXTT5=
EXTT6=
EXTT7=
EXTT8=
EXTT9=
EXTT10=
EXTT11=
EXTT12=
EXTT13=
PLAYORDER=
